{
    "asset" : {
        "copyright" : "mgsx",
        "generator" : "Khronos glTF Blender I/O v1.2.75",
        "version" : "2.0"
    },
    "scene" : 0,
    "scenes" : [
        {
            "extras" : {
                "glTF2ExportSettings" : {
                    "export_apply" : 1,
                    "export_cameras" : 1,
                    "export_copyright" : "mgsx",
                    "export_extras" : 1,
                    "export_format" : "GLTF_SEPARATE",
                    "export_lights" : 1,
                    "export_morph_tangent" : 1,
                    "export_tangents" : 1
                }
            },
            "name" : "Scene",
            "nodes" : [
                0
            ]
        }
    ],
    "nodes" : [
        {
            "mesh" : 0,
            "name" : "bonusRed"
        }
    ],
    "materials" : [
        {
            "doubleSided" : true,
            "emissiveFactor" : [
                1,
                0,
                0.00892205722630024
            ],
            "name" : "Bonus",
            "pbrMetallicRoughness" : {
                "baseColorFactor" : [
                    0.06040540710091591,
                    0.06040540710091591,
                    0.06040540710091591,
                    1
                ],
                "metallicFactor" : 0,
                "roughnessFactor" : 0.5
            }
        }
    ],
    "meshes" : [
        {
            "name" : "Icosphere.004",
            "primitives" : [
                {
                    "attributes" : {
                        "POSITION" : 0,
                        "NORMAL" : 1,
                        "TANGENT" : 2,
                        "TEXCOORD_0" : 3
                    },
                    "indices" : 4,
                    "material" : 0
                }
            ]
        }
    ],
    "accessors" : [
        {
            "bufferView" : 0,
            "componentType" : 5126,
            "count" : 60,
            "max" : [
                0.8944249749183655,
                0.9999998807907104,
                0.8506399989128113
            ],
            "min" : [
                -0.8944249749183655,
                -1,
                -0.8506399989128113
            ],
            "type" : "VEC3"
        },
        {
            "bufferView" : 1,
            "componentType" : 5126,
            "count" : 60,
            "type" : "VEC3"
        },
        {
            "bufferView" : 2,
            "componentType" : 5126,
            "count" : 60,
            "type" : "VEC4"
        },
        {
            "bufferView" : 3,
            "componentType" : 5126,
            "count" : 60,
            "type" : "VEC2"
        },
        {
            "bufferView" : 4,
            "componentType" : 5123,
            "count" : 60,
            "type" : "SCALAR"
        }
    ],
    "bufferViews" : [
        {
            "buffer" : 0,
            "byteLength" : 720,
            "byteOffset" : 0
        },
        {
            "buffer" : 0,
            "byteLength" : 720,
            "byteOffset" : 720
        },
        {
            "buffer" : 0,
            "byteLength" : 960,
            "byteOffset" : 1440
        },
        {
            "buffer" : 0,
            "byteLength" : 480,
            "byteOffset" : 2400
        },
        {
            "buffer" : 0,
            "byteLength" : 120,
            "byteOffset" : 2880
        }
    ],
    "buffers" : [
        {
            "byteLength" : 3000,
            "uri" : "bonus.bin"
        }
    ]
}
