{
    "asset" : {
        "copyright" : "mgsx",
        "generator" : "Khronos glTF Blender I/O v1.2.75",
        "version" : "2.0"
    },
    "scene" : 0,
    "scenes" : [
        {
            "name" : "Scene",
            "nodes" : [
                0,
                1
            ]
        }
    ],
    "nodes" : [
        {
            "mesh" : 0,
            "name" : "Cube"
        },
        {
            "mesh" : 1,
            "name" : "Cylinder.001",
            "translation" : [
                0,
                0,
                0.5405246615409851
            ]
        }
    ],
    "materials" : [
        {
            "doubleSided" : true,
            "emissiveFactor" : [
                0,
                0,
                0
            ],
            "name" : "CarToonA",
            "pbrMetallicRoughness" : {
                "baseColorTexture" : {
                    "index" : 0,
                    "texCoord" : 0
                },
                "metallicFactor" : 0.3909091055393219,
                "roughnessFactor" : 0.19545456767082214
            }
        }
    ],
    "meshes" : [
        {
            "name" : "Cube",
            "primitives" : [
                {
                    "attributes" : {
                        "POSITION" : 0,
                        "NORMAL" : 1,
                        "TANGENT" : 2,
                        "TEXCOORD_0" : 3
                    },
                    "indices" : 4,
                    "material" : 0
                }
            ]
        },
        {
            "name" : "Cylinder",
            "primitives" : [
                {
                    "attributes" : {
                        "POSITION" : 5,
                        "NORMAL" : 6,
                        "TANGENT" : 7,
                        "TEXCOORD_0" : 8
                    },
                    "indices" : 9,
                    "material" : 0
                }
            ]
        }
    ],
    "textures" : [
        {
            "sampler" : 0,
            "source" : 0
        }
    ],
    "images" : [
        {
            "mimeType" : "image/png",
            "name" : "carA-colors",
            "uri" : "carA-colors.png"
        }
    ],
    "accessors" : [
        {
            "bufferView" : 0,
            "componentType" : 5126,
            "count" : 2247,
            "max" : [
                1.4509556293487549,
                2.7031185626983643,
                3.329010009765625
            ],
            "min" : [
                -1.4509556293487549,
                0.2638378143310547,
                -2.29046368598938
            ],
            "type" : "VEC3"
        },
        {
            "bufferView" : 1,
            "componentType" : 5126,
            "count" : 2247,
            "type" : "VEC3"
        },
        {
            "bufferView" : 2,
            "componentType" : 5126,
            "count" : 2247,
            "type" : "VEC4"
        },
        {
            "bufferView" : 3,
            "componentType" : 5126,
            "count" : 2247,
            "type" : "VEC2"
        },
        {
            "bufferView" : 4,
            "componentType" : 5123,
            "count" : 6240,
            "type" : "SCALAR"
        },
        {
            "bufferView" : 5,
            "componentType" : 5126,
            "count" : 1630,
            "max" : [
                1.2578773498535156,
                1.065220594406128,
                2.2079520225524902
            ],
            "min" : [
                -1.2578773498535156,
                -0.048367783427238464,
                -2.2079520225524902
            ],
            "type" : "VEC3"
        },
        {
            "bufferView" : 6,
            "componentType" : 5126,
            "count" : 1630,
            "type" : "VEC3"
        },
        {
            "bufferView" : 7,
            "componentType" : 5126,
            "count" : 1630,
            "type" : "VEC4"
        },
        {
            "bufferView" : 8,
            "componentType" : 5126,
            "count" : 1630,
            "type" : "VEC2"
        },
        {
            "bufferView" : 9,
            "componentType" : 5123,
            "count" : 4992,
            "type" : "SCALAR"
        }
    ],
    "bufferViews" : [
        {
            "buffer" : 0,
            "byteLength" : 26964,
            "byteOffset" : 0
        },
        {
            "buffer" : 0,
            "byteLength" : 26964,
            "byteOffset" : 26964
        },
        {
            "buffer" : 0,
            "byteLength" : 35952,
            "byteOffset" : 53928
        },
        {
            "buffer" : 0,
            "byteLength" : 17976,
            "byteOffset" : 89880
        },
        {
            "buffer" : 0,
            "byteLength" : 12480,
            "byteOffset" : 107856
        },
        {
            "buffer" : 0,
            "byteLength" : 19560,
            "byteOffset" : 120336
        },
        {
            "buffer" : 0,
            "byteLength" : 19560,
            "byteOffset" : 139896
        },
        {
            "buffer" : 0,
            "byteLength" : 26080,
            "byteOffset" : 159456
        },
        {
            "buffer" : 0,
            "byteLength" : 13040,
            "byteOffset" : 185536
        },
        {
            "buffer" : 0,
            "byteLength" : 9984,
            "byteOffset" : 198576
        }
    ],
    "samplers" : [
        {
            "magFilter" : 9728,
            "minFilter" : 9984
        }
    ],
    "buffers" : [
        {
            "byteLength" : 208560,
            "uri" : "carA.bin"
        }
    ]
}
