{
    "asset" : {
        "copyright" : "mgsx",
        "generator" : "Khronos glTF Blender I/O v1.2.75",
        "version" : "2.0"
    },
    "scene" : 0,
    "scenes" : [
        {
            "name" : "Scene",
            "nodes" : [
                0,
                1
            ]
        }
    ],
    "nodes" : [
        {
            "mesh" : 0,
            "name" : "Cube.001"
        },
        {
            "mesh" : 1,
            "name" : "Cylinder.002",
            "translation" : [
                0,
                0,
                0.5405246615409851
            ]
        }
    ],
    "materials" : [
        {
            "doubleSided" : true,
            "emissiveFactor" : [
                0,
                0,
                0
            ],
            "name" : "CarToonB",
            "pbrMetallicRoughness" : {
                "baseColorTexture" : {
                    "index" : 0,
                    "texCoord" : 0
                },
                "metallicFactor" : 0.3909091055393219,
                "roughnessFactor" : 0.19545456767082214
            }
        }
    ],
    "meshes" : [
        {
            "name" : "Cube.001",
            "primitives" : [
                {
                    "attributes" : {
                        "POSITION" : 0,
                        "NORMAL" : 1,
                        "TANGENT" : 2,
                        "TEXCOORD_0" : 3
                    },
                    "indices" : 4,
                    "material" : 0
                }
            ]
        },
        {
            "name" : "Cylinder.001",
            "primitives" : [
                {
                    "attributes" : {
                        "POSITION" : 5,
                        "NORMAL" : 6,
                        "TANGENT" : 7,
                        "TEXCOORD_0" : 8
                    },
                    "indices" : 9,
                    "material" : 0
                }
            ]
        }
    ],
    "textures" : [
        {
            "sampler" : 0,
            "source" : 0
        }
    ],
    "images" : [
        {
            "mimeType" : "image/png",
            "name" : "carB-colors",
            "uri" : "carB-colors.png"
        }
    ],
    "accessors" : [
        {
            "bufferView" : 0,
            "componentType" : 5126,
            "count" : 2246,
            "max" : [
                1.5671871900558472,
                2.3425354957580566,
                3.2741312980651855
            ],
            "min" : [
                -1.5671871900558472,
                0.2559438645839691,
                -2.2926979064941406
            ],
            "type" : "VEC3"
        },
        {
            "bufferView" : 1,
            "componentType" : 5126,
            "count" : 2246,
            "type" : "VEC3"
        },
        {
            "bufferView" : 2,
            "componentType" : 5126,
            "count" : 2246,
            "type" : "VEC4"
        },
        {
            "bufferView" : 3,
            "componentType" : 5126,
            "count" : 2246,
            "type" : "VEC2"
        },
        {
            "bufferView" : 4,
            "componentType" : 5123,
            "count" : 6240,
            "type" : "SCALAR"
        },
        {
            "bufferView" : 5,
            "componentType" : 5126,
            "count" : 1630,
            "max" : [
                1.3155617713928223,
                1.065220594406128,
                2.2079520225524902
            ],
            "min" : [
                -1.3155617713928223,
                -0.048367783427238464,
                -2.2079520225524902
            ],
            "type" : "VEC3"
        },
        {
            "bufferView" : 6,
            "componentType" : 5126,
            "count" : 1630,
            "type" : "VEC3"
        },
        {
            "bufferView" : 7,
            "componentType" : 5126,
            "count" : 1630,
            "type" : "VEC4"
        },
        {
            "bufferView" : 8,
            "componentType" : 5126,
            "count" : 1630,
            "type" : "VEC2"
        },
        {
            "bufferView" : 9,
            "componentType" : 5123,
            "count" : 4992,
            "type" : "SCALAR"
        }
    ],
    "bufferViews" : [
        {
            "buffer" : 0,
            "byteLength" : 26952,
            "byteOffset" : 0
        },
        {
            "buffer" : 0,
            "byteLength" : 26952,
            "byteOffset" : 26952
        },
        {
            "buffer" : 0,
            "byteLength" : 35936,
            "byteOffset" : 53904
        },
        {
            "buffer" : 0,
            "byteLength" : 17968,
            "byteOffset" : 89840
        },
        {
            "buffer" : 0,
            "byteLength" : 12480,
            "byteOffset" : 107808
        },
        {
            "buffer" : 0,
            "byteLength" : 19560,
            "byteOffset" : 120288
        },
        {
            "buffer" : 0,
            "byteLength" : 19560,
            "byteOffset" : 139848
        },
        {
            "buffer" : 0,
            "byteLength" : 26080,
            "byteOffset" : 159408
        },
        {
            "buffer" : 0,
            "byteLength" : 13040,
            "byteOffset" : 185488
        },
        {
            "buffer" : 0,
            "byteLength" : 9984,
            "byteOffset" : 198528
        }
    ],
    "samplers" : [
        {
            "magFilter" : 9728,
            "minFilter" : 9984
        }
    ],
    "buffers" : [
        {
            "byteLength" : 208512,
            "uri" : "carB.bin"
        }
    ]
}
