{
    "asset" : {
        "copyright" : "mgsx",
        "generator" : "Khronos glTF Blender I/O v1.2.75",
        "version" : "2.0"
    },
    "scene" : 0,
    "scenes" : [
        {
            "name" : "Scene",
            "nodes" : [
                0,
                1
            ]
        }
    ],
    "nodes" : [
        {
            "mesh" : 0,
            "name" : "Cube.002"
        },
        {
            "mesh" : 1,
            "name" : "Cylinder.003",
            "translation" : [
                0,
                0,
                0.5405246615409851
            ]
        }
    ],
    "materials" : [
        {
            "doubleSided" : true,
            "emissiveFactor" : [
                0,
                0,
                0
            ],
            "name" : "CarToonC",
            "pbrMetallicRoughness" : {
                "baseColorTexture" : {
                    "index" : 0,
                    "texCoord" : 0
                },
                "metallicFactor" : 0.3909091055393219,
                "roughnessFactor" : 0.19545456767082214
            }
        }
    ],
    "meshes" : [
        {
            "name" : "Cube.002",
            "primitives" : [
                {
                    "attributes" : {
                        "POSITION" : 0,
                        "NORMAL" : 1,
                        "TANGENT" : 2,
                        "TEXCOORD_0" : 3
                    },
                    "indices" : 4,
                    "material" : 0
                }
            ]
        },
        {
            "name" : "Cylinder.002",
            "primitives" : [
                {
                    "attributes" : {
                        "POSITION" : 5,
                        "NORMAL" : 6,
                        "TANGENT" : 7,
                        "TEXCOORD_0" : 8
                    },
                    "indices" : 9,
                    "material" : 0
                }
            ]
        }
    ],
    "textures" : [
        {
            "sampler" : 0,
            "source" : 0
        }
    ],
    "images" : [
        {
            "mimeType" : "image/png",
            "name" : "carC-colors",
            "uri" : "carC-colors.png"
        }
    ],
    "accessors" : [
        {
            "bufferView" : 0,
            "componentType" : 5126,
            "count" : 2234,
            "max" : [
                1.4556493759155273,
                2.6750123500823975,
                3.3284738063812256
            ],
            "min" : [
                -1.4556493759155273,
                0.2638896703720093,
                -2.289111375808716
            ],
            "type" : "VEC3"
        },
        {
            "bufferView" : 1,
            "componentType" : 5126,
            "count" : 2234,
            "type" : "VEC3"
        },
        {
            "bufferView" : 2,
            "componentType" : 5126,
            "count" : 2234,
            "type" : "VEC4"
        },
        {
            "bufferView" : 3,
            "componentType" : 5126,
            "count" : 2234,
            "type" : "VEC2"
        },
        {
            "bufferView" : 4,
            "componentType" : 5123,
            "count" : 6240,
            "type" : "SCALAR"
        },
        {
            "bufferView" : 5,
            "componentType" : 5126,
            "count" : 1630,
            "max" : [
                1.2578773498535156,
                1.065220594406128,
                2.2079520225524902
            ],
            "min" : [
                -1.2578773498535156,
                -0.048367783427238464,
                -2.2079520225524902
            ],
            "type" : "VEC3"
        },
        {
            "bufferView" : 6,
            "componentType" : 5126,
            "count" : 1630,
            "type" : "VEC3"
        },
        {
            "bufferView" : 7,
            "componentType" : 5126,
            "count" : 1630,
            "type" : "VEC4"
        },
        {
            "bufferView" : 8,
            "componentType" : 5126,
            "count" : 1630,
            "type" : "VEC2"
        },
        {
            "bufferView" : 9,
            "componentType" : 5123,
            "count" : 4992,
            "type" : "SCALAR"
        }
    ],
    "bufferViews" : [
        {
            "buffer" : 0,
            "byteLength" : 26808,
            "byteOffset" : 0
        },
        {
            "buffer" : 0,
            "byteLength" : 26808,
            "byteOffset" : 26808
        },
        {
            "buffer" : 0,
            "byteLength" : 35744,
            "byteOffset" : 53616
        },
        {
            "buffer" : 0,
            "byteLength" : 17872,
            "byteOffset" : 89360
        },
        {
            "buffer" : 0,
            "byteLength" : 12480,
            "byteOffset" : 107232
        },
        {
            "buffer" : 0,
            "byteLength" : 19560,
            "byteOffset" : 119712
        },
        {
            "buffer" : 0,
            "byteLength" : 19560,
            "byteOffset" : 139272
        },
        {
            "buffer" : 0,
            "byteLength" : 26080,
            "byteOffset" : 158832
        },
        {
            "buffer" : 0,
            "byteLength" : 13040,
            "byteOffset" : 184912
        },
        {
            "buffer" : 0,
            "byteLength" : 9984,
            "byteOffset" : 197952
        }
    ],
    "samplers" : [
        {
            "magFilter" : 9728,
            "minFilter" : 9984
        }
    ],
    "buffers" : [
        {
            "byteLength" : 207936,
            "uri" : "carC.bin"
        }
    ]
}
