{
    "asset" : {
        "copyright" : "mgsx",
        "generator" : "Khronos glTF Blender I/O v1.2.75",
        "version" : "2.0"
    },
    "scene" : 0,
    "scenes" : [
        {
            "extras" : {
                "glTF2ExportSettings" : {
                    "export_apply" : 1,
                    "export_cameras" : 1,
                    "export_copyright" : "mgsx",
                    "export_extras" : 1,
                    "export_format" : "GLTF_SEPARATE",
                    "export_lights" : 1,
                    "export_morph_tangent" : 1,
                    "export_tangents" : 1
                }
            },
            "name" : "Scene",
            "nodes" : [
                0,
                1
            ]
        }
    ],
    "nodes" : [
        {
            "mesh" : 0,
            "name" : "Plane",
            "scale" : [
                75.9527816772461,
                75.9527816772461,
                75.9527816772461
            ],
            "translation" : [
                -2.0473830699920654,
                -3.924149990081787,
                8.018917083740234
            ]
        },
        {
            "mesh" : 1,
            "name" : "navMeshE",
            "scale" : [
                75.9527816772461,
                75.9527816772461,
                75.9527816772461
            ],
            "translation" : [
                -2.0473830699920654,
                -3.924149990081787,
                8.018917083740234
            ]
        }
    ],
    "meshes" : [
        {
            "name" : "Plane.001",
            "primitives" : [
                {
                    "attributes" : {
                        "POSITION" : 0,
                        "NORMAL" : 1,
                        "TANGENT" : 2,
                        "TEXCOORD_0" : 3
                    },
                    "indices" : 4
                }
            ]
        },
        {
            "name" : "Plane.002",
            "primitives" : [
                {
                    "attributes" : {
                        "POSITION" : 5,
                        "NORMAL" : 6,
                        "TANGENT" : 7,
                        "TEXCOORD_0" : 8
                    },
                    "indices" : 9
                }
            ]
        }
    ],
    "accessors" : [
        {
            "bufferView" : 0,
            "componentType" : 5126,
            "count" : 1884,
            "max" : [
                1,
                0.017652543261647224,
                1
            ],
            "min" : [
                -1,
                0,
                -1
            ],
            "type" : "VEC3"
        },
        {
            "bufferView" : 1,
            "componentType" : 5126,
            "count" : 1884,
            "type" : "VEC3"
        },
        {
            "bufferView" : 2,
            "componentType" : 5126,
            "count" : 1884,
            "type" : "VEC4"
        },
        {
            "bufferView" : 3,
            "componentType" : 5126,
            "count" : 1884,
            "type" : "VEC2"
        },
        {
            "bufferView" : 4,
            "componentType" : 5123,
            "count" : 5796,
            "type" : "SCALAR"
        },
        {
            "bufferView" : 5,
            "componentType" : 5126,
            "count" : 172,
            "max" : [
                0.6190475821495056,
                0,
                0.7142857313156128
            ],
            "min" : [
                -0.7142857313156128,
                0,
                -0.714285671710968
            ],
            "type" : "VEC3"
        },
        {
            "bufferView" : 6,
            "componentType" : 5126,
            "count" : 172,
            "type" : "VEC3"
        },
        {
            "bufferView" : 7,
            "componentType" : 5126,
            "count" : 172,
            "type" : "VEC4"
        },
        {
            "bufferView" : 8,
            "componentType" : 5126,
            "count" : 172,
            "type" : "VEC2"
        },
        {
            "bufferView" : 9,
            "componentType" : 5123,
            "count" : 516,
            "type" : "SCALAR"
        }
    ],
    "bufferViews" : [
        {
            "buffer" : 0,
            "byteLength" : 22608,
            "byteOffset" : 0
        },
        {
            "buffer" : 0,
            "byteLength" : 22608,
            "byteOffset" : 22608
        },
        {
            "buffer" : 0,
            "byteLength" : 30144,
            "byteOffset" : 45216
        },
        {
            "buffer" : 0,
            "byteLength" : 15072,
            "byteOffset" : 75360
        },
        {
            "buffer" : 0,
            "byteLength" : 11592,
            "byteOffset" : 90432
        },
        {
            "buffer" : 0,
            "byteLength" : 2064,
            "byteOffset" : 102024
        },
        {
            "buffer" : 0,
            "byteLength" : 2064,
            "byteOffset" : 104088
        },
        {
            "buffer" : 0,
            "byteLength" : 2752,
            "byteOffset" : 106152
        },
        {
            "buffer" : 0,
            "byteLength" : 1376,
            "byteOffset" : 108904
        },
        {
            "buffer" : 0,
            "byteLength" : 1032,
            "byteOffset" : 110280
        }
    ],
    "buffers" : [
        {
            "byteLength" : 111312,
            "uri" : "worldE.bin"
        }
    ]
}
