{
    "asset" : {
        "copyright" : "mgsx",
        "generator" : "Khronos glTF Blender I/O v1.2.75",
        "version" : "2.0"
    },
    "scene" : 0,
    "scenes" : [
        {
            "extras" : {
                "glTF2ExportSettings" : {
                    "export_apply" : 1,
                    "export_cameras" : 1,
                    "export_copyright" : "mgsx",
                    "export_extras" : 1,
                    "export_format" : "GLTF_SEPARATE",
                    "export_lights" : 1,
                    "export_morph_tangent" : 1,
                    "export_tangents" : 1
                }
            },
            "name" : "Scene",
            "nodes" : [
                0,
                1,
                2,
                3,
                4,
                5,
                6,
                7,
                8,
                9,
                10,
                11,
                12,
                13,
                14,
                15,
                16,
                17,
                18,
                19,
                20,
                21,
                22,
                23,
                24,
                25,
                26,
                27,
                28,
                29
            ]
        }
    ],
    "nodes" : [
        {
            "mesh" : 0,
            "name" : "navMeshC",
            "scale" : [
                16.161785125732422,
                16.161785125732422,
                16.161785125732422
            ],
            "translation" : [
                -12.298636436462402,
                -36.2370491027832,
                -4.611993789672852
            ]
        },
        {
            "mesh" : 1,
            "name" : "navMeshC.001",
            "scale" : [
                16.161785125732422,
                16.161785125732422,
                16.161785125732422
            ],
            "translation" : [
                50.49603271484375,
                -39.08317184448242,
                -20.892330169677734
            ]
        },
        {
            "mesh" : 2,
            "name" : "navMeshC.002",
            "scale" : [
                16.161785125732422,
                16.161785125732422,
                16.161785125732422
            ],
            "translation" : [
                -12.298636436462402,
                -36.2370491027832,
                -4.611993789672852
            ]
        },
        {
            "mesh" : 3,
            "name" : "navMeshC.003",
            "scale" : [
                16.161785125732422,
                16.161785125732422,
                16.161785125732422
            ],
            "translation" : [
                50.49603271484375,
                -39.08317184448242,
                -20.892330169677734
            ]
        },
        {
            "name" : "axis.c1",
            "rotation" : [
                0.4996258318424225,
                0.17684458196163177,
                0.806342363357544,
                0.2625109553337097
            ],
            "scale" : [
                2.158937692642212,
                2.158937692642212,
                2.158937454223633
            ],
            "translation" : [
                13.502626419067383,
                -13.70613956451416,
                -33.42413330078125
            ]
        },
        {
            "name" : "sphere.c1",
            "scale" : [
                18.958498001098633,
                18.958498001098633,
                18.958498001098633
            ],
            "translation" : [
                54.933929443359375,
                -74.63423919677734,
                -71.97885131835938
            ]
        },
        {
            "name" : "bonus.019",
            "scale" : [
                2.2376766204833984,
                2.2376766204833984,
                2.2376766204833984
            ],
            "translation" : [
                -13.67568588256836,
                -5.8414154052734375,
                -67.11692810058594
            ]
        },
        {
            "name" : "bonus.020",
            "scale" : [
                2.2376766204833984,
                2.2376766204833984,
                2.2376766204833984
            ],
            "translation" : [
                -2.7335643768310547,
                -2.0288429260253906,
                -67.68732452392578
            ]
        },
        {
            "name" : "bonus.021",
            "scale" : [
                2.2376766204833984,
                2.2376766204833984,
                2.2376766204833984
            ],
            "translation" : [
                7.475678443908691,
                -1.4039230346679688,
                -64.95922088623047
            ]
        },
        {
            "name" : "bonus.022",
            "scale" : [
                2.2376766204833984,
                2.2376766204833984,
                2.2376766204833984
            ],
            "translation" : [
                48.56405258178711,
                -15.732343673706055,
                -41.93263244628906
            ]
        },
        {
            "name" : "bonus.023",
            "scale" : [
                2.2376766204833984,
                2.2376766204833984,
                2.2376766204833984
            ],
            "translation" : [
                57.78728485107422,
                -21.795658111572266,
                -38.882049560546875
            ]
        },
        {
            "name" : "bonus.024",
            "scale" : [
                2.2376766204833984,
                2.2376766204833984,
                2.2376766204833984
            ],
            "translation" : [
                66.26229095458984,
                -30.592710494995117,
                -33.532470703125
            ]
        },
        {
            "name" : "bonus.025",
            "scale" : [
                2.2376766204833984,
                2.2376766204833984,
                2.2376766204833984
            ],
            "translation" : [
                70.84184265136719,
                -40.25312042236328,
                -23.24141502380371
            ]
        },
        {
            "name" : "bonus.026",
            "scale" : [
                2.2376766204833984,
                2.2376766204833984,
                2.2376766204833984
            ],
            "translation" : [
                68.51665496826172,
                -43.643310546875,
                -10.409879684448242
            ]
        },
        {
            "name" : "bonus.027",
            "scale" : [
                2.2376766204833984,
                2.2376766204833984,
                2.2376766204833984
            ],
            "translation" : [
                45.921165466308594,
                -59.011741638183594,
                31.28682518005371
            ]
        },
        {
            "name" : "bonus.028",
            "scale" : [
                2.2376766204833984,
                2.2376766204833984,
                2.2376766204833984
            ],
            "translation" : [
                30.77063751220703,
                -62.14727020263672,
                40.553382873535156
            ]
        },
        {
            "name" : "bonus.029",
            "scale" : [
                2.2376766204833984,
                2.2376766204833984,
                2.2376766204833984
            ],
            "translation" : [
                13.392280578613281,
                -63.891822814941406,
                47.32445526123047
            ]
        },
        {
            "name" : "bonus.030",
            "scale" : [
                2.2376766204833984,
                2.2376766204833984,
                2.2376766204833984
            ],
            "translation" : [
                -42.15509033203125,
                -19.23204803466797,
                8.480091094970703
            ]
        },
        {
            "name" : "bonus.031",
            "scale" : [
                2.2376766204833984,
                2.2376766204833984,
                2.2376766204833984
            ],
            "translation" : [
                -36.52128982543945,
                -15.294149398803711,
                -1.86724853515625
            ]
        },
        {
            "name" : "bonus.032",
            "scale" : [
                2.2376766204833984,
                2.2376766204833984,
                2.2376766204833984
            ],
            "translation" : [
                -30.924850463867188,
                -16.638362884521484,
                -11.756287574768066
            ]
        },
        {
            "name" : "bonus.033",
            "scale" : [
                2.2376766204833984,
                2.2376766204833984,
                2.2376766204833984
            ],
            "translation" : [
                1.6621437072753906,
                -58.208717346191406,
                -0.40482425689697266
            ]
        },
        {
            "name" : "bonus.034",
            "scale" : [
                2.2376766204833984,
                2.2376766204833984,
                2.2376766204833984
            ],
            "translation" : [
                6.299317359924316,
                -32.3065299987793,
                40.35894775390625
            ]
        },
        {
            "name" : "bonus.035",
            "scale" : [
                2.2376766204833984,
                2.2376766204833984,
                2.2376766204833984
            ],
            "translation" : [
                -15.253300666809082,
                -25.947757720947266,
                62.45372772216797
            ]
        },
        {
            "name" : "bonus.036",
            "scale" : [
                2.2376766204833984,
                2.2376766204833984,
                2.2376766204833984
            ],
            "translation" : [
                -32.965782165527344,
                -20.600830078125,
                54.276832580566406
            ]
        },
        {
            "name" : "bonus.037",
            "scale" : [
                2.2376766204833984,
                2.2376766204833984,
                2.2376766204833984
            ],
            "translation" : [
                -39.81836700439453,
                -32.19884490966797,
                39.36632537841797
            ]
        },
        {
            "name" : "bonus.038",
            "scale" : [
                2.2376766204833984,
                2.2376766204833984,
                2.2376766204833984
            ],
            "translation" : [
                -65.98101806640625,
                -35.86371994018555,
                32.586669921875
            ]
        },
        {
            "name" : "bonus.039",
            "scale" : [
                2.2376766204833984,
                2.2376766204833984,
                2.2376766204833984
            ],
            "translation" : [
                -69.80439758300781,
                -58.170387268066406,
                -42.00275421142578
            ]
        },
        {
            "name" : "bonus.040",
            "scale" : [
                2.2376766204833984,
                2.2376766204833984,
                2.2376766204833984
            ],
            "translation" : [
                -46.303096771240234,
                -63.290992736816406,
                -49.83819580078125
            ]
        },
        {
            "name" : "bonus.041",
            "scale" : [
                2.2376766204833984,
                2.2376766204833984,
                2.2376766204833984
            ],
            "translation" : [
                -6.655106544494629,
                -68.06182861328125,
                -59.879974365234375
            ]
        },
        {
            "name" : "bonus.042",
            "scale" : [
                2.2376766204833984,
                2.2376766204833984,
                2.2376766204833984
            ],
            "translation" : [
                -25.357467651367188,
                -66.29224395751953,
                -55.46831512451172
            ]
        }
    ],
    "materials" : [
        {
            "emissiveFactor" : [
                0,
                0,
                0
            ],
            "name" : "Mirror",
            "pbrMetallicRoughness" : {
                "baseColorFactor" : [
                    0.800000011920929,
                    0.800000011920929,
                    0.800000011920929,
                    1
                ],
                "metallicFactor" : 0.37727272510528564,
                "roughnessFactor" : 0.16818180680274963
            }
        },
        {
            "emissiveFactor" : [
                0,
                0,
                0
            ],
            "name" : "MirroBlack",
            "pbrMetallicRoughness" : {
                "baseColorFactor" : [
                    0.0343162901699543,
                    0.0343162901699543,
                    0.0343162901699543,
                    1
                ],
                "metallicFactor" : 0.37727272510528564,
                "roughnessFactor" : 0.4363636374473572
            }
        },
        {
            "emissiveFactor" : [
                0,
                0.8357442021369934,
                1
            ],
            "name" : "Door",
            "pbrMetallicRoughness" : {
                "baseColorFactor" : [
                    0.12847447395324707,
                    0.12847447395324707,
                    0.12847447395324707,
                    1
                ],
                "metallicFactor" : 0,
                "roughnessFactor" : 0.45454543828964233
            }
        }
    ],
    "meshes" : [
        {
            "extras" : {
                "TorusKnot" : 1,
                "change" : 0,
                "resolution" : 113,
                "objecttype" : 2
            },
            "name" : "TorusKnot",
            "primitives" : [
                {
                    "attributes" : {
                        "POSITION" : 0,
                        "NORMAL" : 1
                    },
                    "indices" : 2,
                    "material" : 0
                }
            ]
        },
        {
            "extras" : {
                "TorusKnot" : 1,
                "change" : 0,
                "resolution" : 113,
                "objecttype" : 2
            },
            "name" : "TorusKnot.001",
            "primitives" : [
                {
                    "attributes" : {
                        "POSITION" : 3,
                        "NORMAL" : 4
                    },
                    "indices" : 5,
                    "material" : 1
                }
            ]
        },
        {
            "extras" : {
                "TorusKnot" : 1,
                "change" : 0,
                "resolution" : 113,
                "objecttype" : 2
            },
            "name" : "TorusKnot.002",
            "primitives" : [
                {
                    "attributes" : {
                        "POSITION" : 6,
                        "NORMAL" : 7
                    },
                    "indices" : 8,
                    "material" : 1
                }
            ]
        },
        {
            "extras" : {
                "TorusKnot" : 1,
                "change" : 0,
                "resolution" : 113,
                "objecttype" : 2
            },
            "name" : "TorusKnot.003",
            "primitives" : [
                {
                    "attributes" : {
                        "POSITION" : 9,
                        "NORMAL" : 10
                    },
                    "indices" : 11,
                    "material" : 2
                }
            ]
        }
    ],
    "accessors" : [
        {
            "bufferView" : 0,
            "componentType" : 5126,
            "count" : 1188,
            "max" : [
                6.011543273925781,
                2.1607139110565186,
                4.217837333679199
            ],
            "min" : [
                -6.143400192260742,
                -2.71248722076416,
                -4.5890631675720215
            ],
            "type" : "VEC3"
        },
        {
            "bufferView" : 1,
            "componentType" : 5126,
            "count" : 1188,
            "type" : "VEC3"
        },
        {
            "bufferView" : 2,
            "componentType" : 5123,
            "count" : 7062,
            "type" : "SCALAR"
        },
        {
            "bufferView" : 3,
            "componentType" : 5126,
            "count" : 55,
            "max" : [
                1.1455129384994507,
                -0.31807368993759155,
                -0.5854783654212952
            ],
            "min" : [
                -4.114173889160156,
                -3.96392560005188,
                -4.40981912612915
            ],
            "type" : "VEC3"
        },
        {
            "bufferView" : 4,
            "componentType" : 5126,
            "count" : 55,
            "type" : "VEC3"
        },
        {
            "bufferView" : 5,
            "componentType" : 5123,
            "count" : 291,
            "type" : "SCALAR"
        },
        {
            "bufferView" : 6,
            "componentType" : 5126,
            "count" : 22,
            "max" : [
                3.0317037105560303,
                0.9862807393074036,
                -1.2039248943328857
            ],
            "min" : [
                0.5267238616943359,
                -0.9988558292388916,
                -3.3455448150634766
            ],
            "type" : "VEC3"
        },
        {
            "bufferView" : 7,
            "componentType" : 5126,
            "count" : 22,
            "type" : "VEC3"
        },
        {
            "bufferView" : 8,
            "componentType" : 5123,
            "count" : 120,
            "type" : "SCALAR"
        },
        {
            "bufferView" : 9,
            "componentType" : 5126,
            "count" : 44,
            "max" : [
                1.007293701171875,
                -0.4911130666732788,
                -0.7399160861968994
            ],
            "min" : [
                -4.114173889160156,
                -3.782600164413452,
                -4.278217792510986
            ],
            "type" : "VEC3"
        },
        {
            "bufferView" : 10,
            "componentType" : 5126,
            "count" : 44,
            "type" : "VEC3"
        },
        {
            "bufferView" : 11,
            "componentType" : 5123,
            "count" : 225,
            "type" : "SCALAR"
        }
    ],
    "bufferViews" : [
        {
            "buffer" : 0,
            "byteLength" : 14256,
            "byteOffset" : 0
        },
        {
            "buffer" : 0,
            "byteLength" : 14256,
            "byteOffset" : 14256
        },
        {
            "buffer" : 0,
            "byteLength" : 14124,
            "byteOffset" : 28512
        },
        {
            "buffer" : 0,
            "byteLength" : 660,
            "byteOffset" : 42636
        },
        {
            "buffer" : 0,
            "byteLength" : 660,
            "byteOffset" : 43296
        },
        {
            "buffer" : 0,
            "byteLength" : 582,
            "byteOffset" : 43956
        },
        {
            "buffer" : 0,
            "byteLength" : 264,
            "byteOffset" : 44540
        },
        {
            "buffer" : 0,
            "byteLength" : 264,
            "byteOffset" : 44804
        },
        {
            "buffer" : 0,
            "byteLength" : 240,
            "byteOffset" : 45068
        },
        {
            "buffer" : 0,
            "byteLength" : 528,
            "byteOffset" : 45308
        },
        {
            "buffer" : 0,
            "byteLength" : 528,
            "byteOffset" : 45836
        },
        {
            "buffer" : 0,
            "byteLength" : 450,
            "byteOffset" : 46364
        }
    ],
    "buffers" : [
        {
            "byteLength" : 46816,
            "uri" : "worldC.bin"
        }
    ]
}
