{
    "asset" : {
        "copyright" : "mgsx",
        "generator" : "Khronos glTF Blender I/O v1.2.75",
        "version" : "2.0"
    },
    "scene" : 0,
    "scenes" : [
        {
            "extras" : {
                "glTF2ExportSettings" : {
                    "export_apply" : 1,
                    "export_cameras" : 1,
                    "export_copyright" : "mgsx",
                    "export_extras" : 1,
                    "export_format" : "GLTF_SEPARATE",
                    "export_lights" : 1,
                    "export_morph_tangent" : 1,
                    "export_tangents" : 1
                }
            },
            "name" : "Scene",
            "nodes" : [
                0,
                1,
                2,
                3,
                4,
                5,
                6,
                7,
                8,
                9,
                10,
                11,
                12,
                13,
                14,
                15,
                16,
                17,
                18,
                19,
                20,
                21,
                22,
                23,
                24,
                25,
                26,
                27,
                28,
                29,
                30,
                31,
                32,
                33
            ]
        }
    ],
    "nodes" : [
        {
            "mesh" : 0,
            "name" : "navMeshE",
            "rotation" : [
                0,
                0.7071067690849304,
                0,
                0.7071068286895752
            ],
            "scale" : [
                0.6613252758979797,
                0.6613252758979797,
                0.6613252758979797
            ],
            "translation" : [
                -128.0306396484375,
                -8.659612655639648,
                -0.5760383605957031
            ]
        },
        {
            "mesh" : 1,
            "name" : "BGE",
            "rotation" : [
                0,
                0.7071067690849304,
                0,
                0.7071068286895752
            ],
            "scale" : [
                0.6613252758979797,
                0.6613252758979797,
                0.6613252758979797
            ],
            "translation" : [
                -128.0306396484375,
                -8.659612655639648,
                -0.5760383605957031
            ]
        },
        {
            "name" : "sphere.e1",
            "scale" : [
                8.439234733581543,
                8.439234733581543,
                8.439234733581543
            ],
            "translation" : [
                -70.7121810913086,
                -73.55536651611328,
                39.779457092285156
            ]
        },
        {
            "name" : "sphere.e2",
            "scale" : [
                8.805954933166504,
                8.805954933166504,
                8.805954933166504
            ],
            "translation" : [
                -49.906044006347656,
                -79.16715240478516,
                84.62136840820312
            ]
        },
        {
            "name" : "axis.e1",
            "rotation" : [
                0.027973763644695282,
                0.025801116600632668,
                0.7102918028831482,
                0.7028778791427612
            ],
            "scale" : [
                4.1918625831604,
                4.1918625831604,
                4.1918625831604
            ],
            "translation" : [
                -66.65834045410156,
                -59.055233001708984,
                39.58937072753906
            ]
        },
        {
            "name" : "axis.e2",
            "rotation" : [
                -0.01967111974954605,
                -0.023805228993296623,
                0.7665098905563354,
                0.6414896249771118
            ],
            "scale" : [
                5.482529640197754,
                5.482529640197754,
                5.482529640197754
            ],
            "translation" : [
                -44.960330963134766,
                -61.87257385253906,
                84.39644622802734
            ]
        },
        {
            "name" : "axis.e0",
            "rotation" : [
                0,
                0,
                1,
                7.549790126404332e-08
            ],
            "translation" : [
                -5.012377738952637,
                -6.715753555297852,
                0.06461226940155029
            ]
        },
        {
            "name" : "axis.e3",
            "rotation" : [
                -0.5323471426963806,
                -0.4212280213832855,
                0.5680148601531982,
                0.4653306007385254
            ],
            "scale" : [
                6.854341506958008,
                6.854341506958008,
                6.854341983795166
            ],
            "translation" : [
                -1.5743889808654785,
                -57.63800811767578,
                2.473428726196289
            ]
        },
        {
            "name" : "sphere.e3",
            "scale" : [
                17.03135108947754,
                17.03135108947754,
                17.03135108947754
            ],
            "translation" : [
                -203.0791015625,
                133.85809326171875,
                -0.48280808329582214
            ]
        },
        {
            "name" : "bonus.000",
            "scale" : [
                2.2376766204833984,
                2.2376766204833984,
                2.2376766204833984
            ],
            "translation" : [
                -90.16104125976562,
                -0.9523921012878418,
                30.382631301879883
            ]
        },
        {
            "name" : "bonus.001",
            "scale" : [
                2.2376766204833984,
                2.2376766204833984,
                2.2376766204833984
            ],
            "translation" : [
                -81.20074462890625,
                -0.5715065002441406,
                30.320310592651367
            ]
        },
        {
            "name" : "bonus.002",
            "scale" : [
                2.2376766204833984,
                2.2376766204833984,
                2.2376766204833984
            ],
            "translation" : [
                -122.72346496582031,
                -6.513267517089844,
                84.35429382324219
            ]
        },
        {
            "name" : "bonus.004",
            "scale" : [
                2.2376766204833984,
                2.2376766204833984,
                2.2376766204833984
            ],
            "translation" : [
                -138.81442260742188,
                -2.8954992294311523,
                85.70321655273438
            ]
        },
        {
            "name" : "bonus.006",
            "scale" : [
                2.2376766204833984,
                2.2376766204833984,
                2.2376766204833984
            ],
            "translation" : [
                -152.5938262939453,
                9.615739822387695,
                87.2203369140625
            ]
        },
        {
            "name" : "bonus.008",
            "scale" : [
                2.2376766204833984,
                2.2376766204833984,
                2.2376766204833984
            ],
            "translation" : [
                -152.07183837890625,
                29.09554100036621,
                87.30184936523438
            ]
        },
        {
            "name" : "bonus.010",
            "scale" : [
                2.2376766204833984,
                2.2376766204833984,
                2.2376766204833984
            ],
            "translation" : [
                -133.51980590820312,
                42.14134979248047,
                88.11116027832031
            ]
        },
        {
            "name" : "bonus.012",
            "scale" : [
                2.2376766204833984,
                2.2376766204833984,
                2.2376766204833984
            ],
            "translation" : [
                -113.35889434814453,
                35.51250457763672,
                89.88006591796875
            ]
        },
        {
            "name" : "bonus.014",
            "scale" : [
                2.2376766204833984,
                2.2376766204833984,
                2.2376766204833984
            ],
            "translation" : [
                -104.42113494873047,
                17.12628936767578,
                92.69737243652344
            ]
        },
        {
            "name" : "bonus.016",
            "scale" : [
                2.2376766204833984,
                2.2376766204833984,
                2.2376766204833984
            ],
            "translation" : [
                -115.58004760742188,
                0.11211967468261719,
                94.0504150390625
            ]
        },
        {
            "name" : "bonus.018",
            "scale" : [
                2.2376766204833984,
                2.2376766204833984,
                2.2376766204833984
            ],
            "translation" : [
                -73.57759857177734,
                -1.1860146522521973,
                30.104251861572266
            ]
        },
        {
            "name" : "bonus.050",
            "scale" : [
                2.2376766204833984,
                2.2376766204833984,
                2.2376766204833984
            ],
            "translation" : [
                -167.18890380859375,
                -4.36845064163208,
                39.17536926269531
            ]
        },
        {
            "name" : "bonus.052",
            "scale" : [
                2.2376766204833984,
                2.2376766204833984,
                2.2376766204833984
            ],
            "translation" : [
                -186.96148681640625,
                -8.659612655639648,
                -107.95443725585938
            ]
        },
        {
            "name" : "bonus.053",
            "scale" : [
                2.2376766204833984,
                2.2376766204833984,
                2.2376766204833984
            ],
            "translation" : [
                -198.3792724609375,
                -8.659612655639648,
                -107.51870727539062
            ]
        },
        {
            "name" : "bonus.066",
            "scale" : [
                2.2376766204833984,
                2.2376766204833984,
                2.2376766204833984
            ],
            "translation" : [
                -175.35614013671875,
                -8.659612655639648,
                -107.87197875976562
            ]
        },
        {
            "name" : "bonus.076",
            "scale" : [
                2.2376766204833984,
                2.2376766204833984,
                2.2376766204833984
            ],
            "translation" : [
                -260.3932800292969,
                -8.34408950805664,
                -0.22317251563072205
            ]
        },
        {
            "name" : "bonus.078",
            "scale" : [
                2.2376766204833984,
                2.2376766204833984,
                2.2376766204833984
            ],
            "translation" : [
                -300.39190673828125,
                17.207664489746094,
                -0.7305861711502075
            ]
        },
        {
            "name" : "bonus.080",
            "scale" : [
                2.2376766204833984,
                2.2376766204833984,
                2.2376766204833984
            ],
            "translation" : [
                -304.742919921875,
                52.63133239746094,
                -0.01954442262649536
            ]
        },
        {
            "name" : "bonus.082",
            "scale" : [
                2.2376766204833984,
                2.2376766204833984,
                2.2376766204833984
            ],
            "translation" : [
                -299.26116943359375,
                93.96464538574219,
                -0.37883108854293823
            ]
        },
        {
            "name" : "bonus.003",
            "scale" : [
                2.2376766204833984,
                2.2376766204833984,
                2.2376766204833984
            ],
            "translation" : [
                -178.82080078125,
                -11.825691223144531,
                30.84050178527832
            ]
        },
        {
            "name" : "bonus.005",
            "scale" : [
                2.2376766204833984,
                2.2376766204833984,
                2.2376766204833984
            ],
            "translation" : [
                -167.48605346679688,
                -11.856882095336914,
                30.40677833557129
            ]
        },
        {
            "name" : "bonus.007",
            "scale" : [
                2.2376766204833984,
                2.2376766204833984,
                2.2376766204833984
            ],
            "translation" : [
                -178.661376953125,
                -4.368440628051758,
                39.34457778930664
            ]
        },
        {
            "name" : "bonus.009",
            "scale" : [
                2.2376766204833984,
                2.2376766204833984,
                2.2376766204833984
            ],
            "translation" : [
                -95.54569244384766,
                -11.189775466918945,
                39.3862419128418
            ]
        },
        {
            "name" : "bonus.011",
            "scale" : [
                2.2376766204833984,
                2.2376766204833984,
                2.2376766204833984
            ],
            "translation" : [
                -82.08462524414062,
                -8.952902793884277,
                84.05809020996094
            ]
        },
        {
            "mesh" : 2,
            "name" : "Icosphere.003",
            "scale" : [
                207.1038818359375,
                207.1038818359375,
                207.1038818359375
            ],
            "translation" : [
                -135.36138916015625,
                -30.227886199951172,
                7.421339988708496
            ]
        }
    ],
    "materials" : [
        {
            "doubleSided" : true,
            "emissiveFactor" : [
                0,
                0,
                0
            ],
            "name" : "World",
            "pbrMetallicRoughness" : {
                "baseColorTexture" : {
                    "index" : 0,
                    "texCoord" : 0
                },
                "metallicFactor" : 0,
                "roughnessFactor" : 0.5
            }
        }
    ],
    "meshes" : [
        {
            "name" : "Plane.002",
            "primitives" : [
                {
                    "attributes" : {
                        "POSITION" : 0,
                        "NORMAL" : 1,
                        "TANGENT" : 2,
                        "TEXCOORD_0" : 3
                    },
                    "indices" : 4,
                    "material" : 0
                }
            ]
        },
        {
            "name" : "Plane.008",
            "primitives" : [
                {
                    "attributes" : {
                        "POSITION" : 5,
                        "NORMAL" : 6,
                        "TANGENT" : 7,
                        "TEXCOORD_0" : 8
                    },
                    "indices" : 9,
                    "material" : 0
                }
            ]
        },
        {
            "name" : "Icosphere.007",
            "primitives" : [
                {
                    "attributes" : {
                        "POSITION" : 10,
                        "NORMAL" : 11,
                        "TANGENT" : 12,
                        "TEXCOORD_0" : 13
                    },
                    "indices" : 14,
                    "material" : 0
                }
            ]
        }
    ],
    "textures" : [
        {
            "sampler" : 0,
            "source" : 0
        }
    ],
    "images" : [
        {
            "mimeType" : "image/png",
            "name" : "worlds-colors",
            "uri" : "worlds-colors.png"
        }
    ],
    "accessors" : [
        {
            "bufferView" : 0,
            "componentType" : 5126,
            "count" : 271,
            "max" : [
                175.78591918945312,
                215.62911987304688,
                202.82992553710938
            ],
            "min" : [
                -191.208251953125,
                -113.9183120727539,
                -267.2093505859375
            ],
            "type" : "VEC3"
        },
        {
            "bufferView" : 1,
            "componentType" : 5126,
            "count" : 271,
            "type" : "VEC3"
        },
        {
            "bufferView" : 2,
            "componentType" : 5126,
            "count" : 271,
            "type" : "VEC4"
        },
        {
            "bufferView" : 3,
            "componentType" : 5126,
            "count" : 271,
            "type" : "VEC2"
        },
        {
            "bufferView" : 4,
            "componentType" : 5123,
            "count" : 801,
            "type" : "SCALAR"
        },
        {
            "bufferView" : 5,
            "componentType" : 5126,
            "count" : 807,
            "max" : [
                181.25392150878906,
                225.62911987304688,
                204.27589416503906
            ],
            "min" : [
                -193.37872314453125,
                -115.48421478271484,
                -277.1629638671875
            ],
            "type" : "VEC3"
        },
        {
            "bufferView" : 6,
            "componentType" : 5126,
            "count" : 807,
            "type" : "VEC3"
        },
        {
            "bufferView" : 7,
            "componentType" : 5126,
            "count" : 807,
            "type" : "VEC4"
        },
        {
            "bufferView" : 8,
            "componentType" : 5126,
            "count" : 807,
            "type" : "VEC2"
        },
        {
            "bufferView" : 9,
            "componentType" : 5123,
            "count" : 3132,
            "type" : "SCALAR"
        },
        {
            "bufferView" : 10,
            "componentType" : 5126,
            "count" : 729,
            "max" : [
                1.2436823844909668,
                0.48787161707878113,
                1.2635388374328613
            ],
            "min" : [
                -1.41344153881073,
                -1.5007917881011963,
                -1.154531478881836
            ],
            "type" : "VEC3"
        },
        {
            "bufferView" : 11,
            "componentType" : 5126,
            "count" : 729,
            "type" : "VEC3"
        },
        {
            "bufferView" : 12,
            "componentType" : 5126,
            "count" : 729,
            "type" : "VEC4"
        },
        {
            "bufferView" : 13,
            "componentType" : 5126,
            "count" : 729,
            "type" : "VEC2"
        },
        {
            "bufferView" : 14,
            "componentType" : 5123,
            "count" : 3840,
            "type" : "SCALAR"
        }
    ],
    "bufferViews" : [
        {
            "buffer" : 0,
            "byteLength" : 3252,
            "byteOffset" : 0
        },
        {
            "buffer" : 0,
            "byteLength" : 3252,
            "byteOffset" : 3252
        },
        {
            "buffer" : 0,
            "byteLength" : 4336,
            "byteOffset" : 6504
        },
        {
            "buffer" : 0,
            "byteLength" : 2168,
            "byteOffset" : 10840
        },
        {
            "buffer" : 0,
            "byteLength" : 1602,
            "byteOffset" : 13008
        },
        {
            "buffer" : 0,
            "byteLength" : 9684,
            "byteOffset" : 14612
        },
        {
            "buffer" : 0,
            "byteLength" : 9684,
            "byteOffset" : 24296
        },
        {
            "buffer" : 0,
            "byteLength" : 12912,
            "byteOffset" : 33980
        },
        {
            "buffer" : 0,
            "byteLength" : 6456,
            "byteOffset" : 46892
        },
        {
            "buffer" : 0,
            "byteLength" : 6264,
            "byteOffset" : 53348
        },
        {
            "buffer" : 0,
            "byteLength" : 8748,
            "byteOffset" : 59612
        },
        {
            "buffer" : 0,
            "byteLength" : 8748,
            "byteOffset" : 68360
        },
        {
            "buffer" : 0,
            "byteLength" : 11664,
            "byteOffset" : 77108
        },
        {
            "buffer" : 0,
            "byteLength" : 5832,
            "byteOffset" : 88772
        },
        {
            "buffer" : 0,
            "byteLength" : 7680,
            "byteOffset" : 94604
        }
    ],
    "samplers" : [
        {
            "magFilter" : 9728,
            "minFilter" : 9984
        }
    ],
    "buffers" : [
        {
            "byteLength" : 102284,
            "uri" : "worldE.bin"
        }
    ]
}
