{
    "asset" : {
        "copyright" : "mgsx",
        "generator" : "Khronos glTF Blender I/O v1.2.75",
        "version" : "2.0"
    },
    "scene" : 0,
    "scenes" : [
        {
            "extras" : {
                "glTF2ExportSettings" : {
                    "export_apply" : 1,
                    "export_cameras" : 1,
                    "export_copyright" : "mgsx",
                    "export_extras" : 1,
                    "export_format" : "GLTF_SEPARATE",
                    "export_lights" : 1,
                    "export_morph_tangent" : 1,
                    "export_tangents" : 1
                }
            },
            "name" : "Scene",
            "nodes" : [
                0,
                1,
                2,
                3,
                4,
                5,
                6,
                7,
                8,
                9,
                10,
                11,
                12,
                13,
                14,
                15,
                16,
                17,
                18,
                19,
                20,
                21,
                22,
                23,
                24,
                25,
                26
            ]
        }
    ],
    "nodes" : [
        {
            "mesh" : 0,
            "name" : "navMeshE",
            "rotation" : [
                0,
                0.7071067690849304,
                0,
                0.7071068286895752
            ],
            "scale" : [
                0.6613252758979797,
                0.6613252758979797,
                0.6613252758979797
            ],
            "translation" : [
                -128.0306396484375,
                -8.659612655639648,
                -0.5760383605957031
            ]
        },
        {
            "name" : "sphere.e1",
            "scale" : [
                8.439234733581543,
                8.439234733581543,
                8.439234733581543
            ],
            "translation" : [
                -70.7121810913086,
                -73.55536651611328,
                39.779457092285156
            ]
        },
        {
            "name" : "sphere.e2",
            "scale" : [
                8.805954933166504,
                8.805954933166504,
                8.805954933166504
            ],
            "translation" : [
                -49.906044006347656,
                -79.16715240478516,
                84.62136840820312
            ]
        },
        {
            "name" : "axis.e1",
            "rotation" : [
                0.027973763644695282,
                0.025801116600632668,
                0.7102918028831482,
                0.7028778791427612
            ],
            "scale" : [
                4.1918625831604,
                4.1918625831604,
                4.1918625831604
            ],
            "translation" : [
                -66.65834045410156,
                -59.055233001708984,
                39.58937072753906
            ]
        },
        {
            "name" : "axis.e2",
            "rotation" : [
                -0.01967111974954605,
                -0.023805228993296623,
                0.7665098905563354,
                0.6414896249771118
            ],
            "scale" : [
                5.482529640197754,
                5.482529640197754,
                5.482529640197754
            ],
            "translation" : [
                -44.960330963134766,
                -61.87257385253906,
                84.39644622802734
            ]
        },
        {
            "name" : "axis.e0",
            "rotation" : [
                0,
                0,
                1,
                7.549790126404332e-08
            ],
            "translation" : [
                -5.012377738952637,
                -6.715753555297852,
                0.06461226940155029
            ]
        },
        {
            "name" : "axis.e3",
            "rotation" : [
                -0.5323471426963806,
                -0.4212280213832855,
                0.5680148601531982,
                0.4653306007385254
            ],
            "scale" : [
                6.854341506958008,
                6.854341506958008,
                6.854341983795166
            ],
            "translation" : [
                -1.5743889808654785,
                -57.63800811767578,
                2.473428726196289
            ]
        },
        {
            "name" : "sphere.e3",
            "scale" : [
                17.03135108947754,
                17.03135108947754,
                17.03135108947754
            ],
            "translation" : [
                -203.0791015625,
                133.85809326171875,
                -0.48280808329582214
            ]
        },
        {
            "name" : "bonus.000",
            "scale" : [
                2.2376766204833984,
                2.2376766204833984,
                2.2376766204833984
            ],
            "translation" : [
                -90.16104125976562,
                -0.9523921012878418,
                30.382631301879883
            ]
        },
        {
            "name" : "bonus.001",
            "scale" : [
                2.2376766204833984,
                2.2376766204833984,
                2.2376766204833984
            ],
            "translation" : [
                -81.20074462890625,
                -0.5715065002441406,
                30.320310592651367
            ]
        },
        {
            "name" : "bonus.002",
            "scale" : [
                2.2376766204833984,
                2.2376766204833984,
                2.2376766204833984
            ],
            "translation" : [
                -122.72346496582031,
                -6.513267517089844,
                84.35429382324219
            ]
        },
        {
            "name" : "bonus.003",
            "scale" : [
                2.2376766204833984,
                2.2376766204833984,
                2.2376766204833984
            ],
            "translation" : [
                -130.5869140625,
                -4.813066005706787,
                85.34725952148438
            ]
        },
        {
            "name" : "bonus.004",
            "scale" : [
                2.2376766204833984,
                2.2376766204833984,
                2.2376766204833984
            ],
            "translation" : [
                -138.81442260742188,
                -2.8954992294311523,
                85.70321655273438
            ]
        },
        {
            "name" : "bonus.005",
            "scale" : [
                2.2376766204833984,
                2.2376766204833984,
                2.2376766204833984
            ],
            "translation" : [
                -146.47549438476562,
                2.7418909072875977,
                86.05007934570312
            ]
        },
        {
            "name" : "bonus.006",
            "scale" : [
                2.2376766204833984,
                2.2376766204833984,
                2.2376766204833984
            ],
            "translation" : [
                -152.5938262939453,
                9.615739822387695,
                87.2203369140625
            ]
        },
        {
            "name" : "bonus.007",
            "scale" : [
                2.2376766204833984,
                2.2376766204833984,
                2.2376766204833984
            ],
            "translation" : [
                -155.50538635253906,
                18.495969772338867,
                87.42131042480469
            ]
        },
        {
            "name" : "bonus.008",
            "scale" : [
                2.2376766204833984,
                2.2376766204833984,
                2.2376766204833984
            ],
            "translation" : [
                -152.07183837890625,
                29.09554100036621,
                87.30184936523438
            ]
        },
        {
            "name" : "bonus.009",
            "scale" : [
                2.2376766204833984,
                2.2376766204833984,
                2.2376766204833984
            ],
            "translation" : [
                -143.33763122558594,
                37.73943328857422,
                87.9405517578125
            ]
        },
        {
            "name" : "bonus.010",
            "scale" : [
                2.2376766204833984,
                2.2376766204833984,
                2.2376766204833984
            ],
            "translation" : [
                -133.51980590820312,
                42.14134979248047,
                88.11116027832031
            ]
        },
        {
            "name" : "bonus.011",
            "scale" : [
                2.2376766204833984,
                2.2376766204833984,
                2.2376766204833984
            ],
            "translation" : [
                -123.12056732177734,
                41.55308532714844,
                88.99246215820312
            ]
        },
        {
            "name" : "bonus.012",
            "scale" : [
                2.2376766204833984,
                2.2376766204833984,
                2.2376766204833984
            ],
            "translation" : [
                -113.35889434814453,
                35.51250457763672,
                89.88006591796875
            ]
        },
        {
            "name" : "bonus.013",
            "scale" : [
                2.2376766204833984,
                2.2376766204833984,
                2.2376766204833984
            ],
            "translation" : [
                -106.98017883300781,
                26.42918586730957,
                90.69877624511719
            ]
        },
        {
            "name" : "bonus.014",
            "scale" : [
                2.2376766204833984,
                2.2376766204833984,
                2.2376766204833984
            ],
            "translation" : [
                -104.39698791503906,
                16.790557861328125,
                90.56504821777344
            ]
        },
        {
            "name" : "bonus.015",
            "scale" : [
                2.2376766204833984,
                2.2376766204833984,
                2.2376766204833984
            ],
            "translation" : [
                -108.52477264404297,
                6.6375532150268555,
                91.47267150878906
            ]
        },
        {
            "name" : "bonus.016",
            "scale" : [
                2.2376766204833984,
                2.2376766204833984,
                2.2376766204833984
            ],
            "translation" : [
                -116.33824157714844,
                -0.3582429885864258,
                91.36416625976562
            ]
        },
        {
            "name" : "bonus.017",
            "scale" : [
                2.2376766204833984,
                2.2376766204833984,
                2.2376766204833984
            ],
            "translation" : [
                -126.98728942871094,
                -5.5821990966796875,
                91.87319946289062
            ]
        },
        {
            "name" : "bonus.018",
            "scale" : [
                2.2376766204833984,
                2.2376766204833984,
                2.2376766204833984
            ],
            "translation" : [
                -73.57759857177734,
                -1.1860146522521973,
                30.104251861572266
            ]
        }
    ],
    "materials" : [
        {
            "doubleSided" : true,
            "emissiveFactor" : [
                0,
                0,
                0
            ],
            "name" : "World",
            "pbrMetallicRoughness" : {
                "baseColorTexture" : {
                    "index" : 0,
                    "texCoord" : 0
                },
                "metallicFactor" : 0,
                "roughnessFactor" : 0.5
            }
        }
    ],
    "meshes" : [
        {
            "name" : "Plane.002",
            "primitives" : [
                {
                    "attributes" : {
                        "POSITION" : 0,
                        "NORMAL" : 1,
                        "TANGENT" : 2,
                        "TEXCOORD_0" : 3
                    },
                    "indices" : 4,
                    "material" : 0
                }
            ]
        }
    ],
    "textures" : [
        {
            "sampler" : 0,
            "source" : 0
        }
    ],
    "images" : [
        {
            "mimeType" : "image/png",
            "name" : "worlds-colors",
            "uri" : "worlds-colors.png"
        }
    ],
    "accessors" : [
        {
            "bufferView" : 0,
            "componentType" : 5126,
            "count" : 271,
            "max" : [
                175.78591918945312,
                215.62911987304688,
                202.82992553710938
            ],
            "min" : [
                -191.208251953125,
                -113.9183120727539,
                -267.2093505859375
            ],
            "type" : "VEC3"
        },
        {
            "bufferView" : 1,
            "componentType" : 5126,
            "count" : 271,
            "type" : "VEC3"
        },
        {
            "bufferView" : 2,
            "componentType" : 5126,
            "count" : 271,
            "type" : "VEC4"
        },
        {
            "bufferView" : 3,
            "componentType" : 5126,
            "count" : 271,
            "type" : "VEC2"
        },
        {
            "bufferView" : 4,
            "componentType" : 5123,
            "count" : 801,
            "type" : "SCALAR"
        }
    ],
    "bufferViews" : [
        {
            "buffer" : 0,
            "byteLength" : 3252,
            "byteOffset" : 0
        },
        {
            "buffer" : 0,
            "byteLength" : 3252,
            "byteOffset" : 3252
        },
        {
            "buffer" : 0,
            "byteLength" : 4336,
            "byteOffset" : 6504
        },
        {
            "buffer" : 0,
            "byteLength" : 2168,
            "byteOffset" : 10840
        },
        {
            "buffer" : 0,
            "byteLength" : 1602,
            "byteOffset" : 13008
        }
    ],
    "samplers" : [
        {
            "magFilter" : 9728,
            "minFilter" : 9984
        }
    ],
    "buffers" : [
        {
            "byteLength" : 14612,
            "uri" : "worldE.bin"
        }
    ]
}
