{
    "asset" : {
        "copyright" : "mgsx",
        "generator" : "Khronos glTF Blender I/O v1.2.75",
        "version" : "2.0"
    },
    "scene" : 0,
    "scenes" : [
        {
            "extras" : {
                "glTF2ExportSettings" : {
                    "export_apply" : 1,
                    "export_cameras" : 1,
                    "export_copyright" : "mgsx",
                    "export_extras" : 1,
                    "export_format" : "GLTF_SEPARATE",
                    "export_lights" : 1,
                    "export_morph_tangent" : 1,
                    "export_tangents" : 1
                }
            },
            "name" : "Scene",
            "nodes" : [
                0,
                1,
                2,
                3,
                4,
                5,
                6
            ]
        }
    ],
    "nodes" : [
        {
            "mesh" : 0,
            "name" : "navMeshA",
            "scale" : [
                2.1837949752807617,
                2.1837949752807617,
                2.1837949752807617
            ],
            "translation" : [
                7.2745280265808105,
                -26.376806259155273,
                7.544682502746582
            ]
        },
        {
            "name" : "axis.a1",
            "rotation" : [
                -0.48653677105903625,
                -0.018313061445951462,
                0.872656524181366,
                0.03764605149626732
            ],
            "translation" : [
                19.61617088317871,
                48.84380340576172,
                27.467376708984375
            ]
        },
        {
            "name" : "sphere.a1",
            "scale" : [
                7.501271724700928,
                7.501271724700928,
                7.501271724700928
            ],
            "translation" : [
                9.46820068359375,
                10.897080421447754,
                33.870540618896484
            ]
        },
        {
            "mesh" : 1,
            "name" : "Cube",
            "scale" : [
                2.1837949752807617,
                2.1837949752807617,
                2.1837949752807617
            ],
            "translation" : [
                -9.618677139282227,
                27.868728637695312,
                -9.141544342041016
            ]
        },
        {
            "mesh" : 2,
            "name" : "Icosphere",
            "scale" : [
                3.0098748207092285,
                3.0098748207092285,
                3.0098748207092285
            ],
            "translation" : [
                -9.887256622314453,
                36.08421325683594,
                -13.19567584991455
            ]
        },
        {
            "mesh" : 3,
            "name" : "Icosphere.001",
            "scale" : [
                3.0098748207092285,
                3.0098748207092285,
                3.0098748207092285
            ],
            "translation" : [
                -6.255393028259277,
                37.016300201416016,
                -8.981054306030273
            ]
        },
        {
            "mesh" : 4,
            "name" : "Icosphere.002",
            "scale" : [
                3.07482647895813,
                3.07482647895813,
                3.07482647895813
            ],
            "translation" : [
                -12.238655090332031,
                36.81537628173828,
                -8.092901229858398
            ]
        }
    ],
    "materials" : [
        {
            "emissiveFactor" : [
                0,
                0,
                0
            ],
            "name" : "Mirror",
            "pbrMetallicRoughness" : {
                "baseColorFactor" : [
                    0.800000011920929,
                    0.800000011920929,
                    0.800000011920929,
                    1
                ],
                "metallicFactor" : 0.37727272510528564,
                "roughnessFactor" : 0.16818180680274963
            }
        },
        {
            "doubleSided" : true,
            "emissiveFactor" : [
                0,
                0,
                0
            ],
            "name" : "BackgroundBase",
            "pbrMetallicRoughness" : {
                "baseColorFactor" : [
                    0.800000011920929,
                    0.800000011920929,
                    0.800000011920929,
                    1
                ],
                "metallicFactor" : 0,
                "roughnessFactor" : 0.4000000059604645
            }
        }
    ],
    "meshes" : [
        {
            "name" : "Icosphere",
            "primitives" : [
                {
                    "attributes" : {
                        "POSITION" : 0,
                        "NORMAL" : 1,
                        "TANGENT" : 2,
                        "TEXCOORD_0" : 3
                    },
                    "indices" : 4,
                    "material" : 0
                }
            ]
        },
        {
            "name" : "Cube",
            "primitives" : [
                {
                    "attributes" : {
                        "POSITION" : 5,
                        "NORMAL" : 6
                    },
                    "indices" : 7,
                    "material" : 1
                }
            ]
        },
        {
            "name" : "Icosphere.001",
            "primitives" : [
                {
                    "attributes" : {
                        "POSITION" : 8,
                        "NORMAL" : 9,
                        "TANGENT" : 10,
                        "TEXCOORD_0" : 11
                    },
                    "indices" : 12
                }
            ]
        },
        {
            "name" : "Icosphere.002",
            "primitives" : [
                {
                    "attributes" : {
                        "POSITION" : 13,
                        "NORMAL" : 14,
                        "TANGENT" : 15,
                        "TEXCOORD_0" : 16
                    },
                    "indices" : 12
                }
            ]
        },
        {
            "name" : "Icosphere.003",
            "primitives" : [
                {
                    "attributes" : {
                        "POSITION" : 17,
                        "NORMAL" : 18,
                        "TANGENT" : 19,
                        "TEXCOORD_0" : 20
                    },
                    "indices" : 12
                }
            ]
        }
    ],
    "accessors" : [
        {
            "bufferView" : 0,
            "componentType" : 5126,
            "count" : 6179,
            "max" : [
                23.121967315673828,
                33.89552688598633,
                23.633224487304688
            ],
            "min" : [
                -29.438968658447266,
                -15.121158599853516,
                -32.81935501098633
            ],
            "type" : "VEC3"
        },
        {
            "bufferView" : 1,
            "componentType" : 5126,
            "count" : 6179,
            "type" : "VEC3"
        },
        {
            "bufferView" : 2,
            "componentType" : 5126,
            "count" : 6179,
            "type" : "VEC4"
        },
        {
            "bufferView" : 3,
            "componentType" : 5126,
            "count" : 6179,
            "type" : "VEC2"
        },
        {
            "bufferView" : 4,
            "componentType" : 5123,
            "count" : 33888,
            "type" : "SCALAR"
        },
        {
            "bufferView" : 5,
            "componentType" : 5126,
            "count" : 414,
            "max" : [
                1.1036462783813477,
                3.4431471824645996,
                0.44383180141448975
            ],
            "min" : [
                -1.0558254718780518,
                0,
                -1.3923394680023193
            ],
            "type" : "VEC3"
        },
        {
            "bufferView" : 6,
            "componentType" : 5126,
            "count" : 414,
            "type" : "VEC3"
        },
        {
            "bufferView" : 7,
            "componentType" : 5123,
            "count" : 606,
            "type" : "SCALAR"
        },
        {
            "bufferView" : 8,
            "componentType" : 5126,
            "count" : 240,
            "max" : [
                0.9510578513145447,
                1,
                0.9999999403953552
            ],
            "min" : [
                -0.9510578513145447,
                -1,
                -0.9999999403953552
            ],
            "type" : "VEC3"
        },
        {
            "bufferView" : 9,
            "componentType" : 5126,
            "count" : 240,
            "type" : "VEC3"
        },
        {
            "bufferView" : 10,
            "componentType" : 5126,
            "count" : 240,
            "type" : "VEC4"
        },
        {
            "bufferView" : 11,
            "componentType" : 5126,
            "count" : 240,
            "type" : "VEC2"
        },
        {
            "bufferView" : 12,
            "componentType" : 5123,
            "count" : 240,
            "type" : "SCALAR"
        },
        {
            "bufferView" : 13,
            "componentType" : 5126,
            "count" : 240,
            "max" : [
                0.9510578513145447,
                1,
                0.9999999403953552
            ],
            "min" : [
                -0.9510578513145447,
                -1,
                -0.9999999403953552
            ],
            "type" : "VEC3"
        },
        {
            "bufferView" : 14,
            "componentType" : 5126,
            "count" : 240,
            "type" : "VEC3"
        },
        {
            "bufferView" : 15,
            "componentType" : 5126,
            "count" : 240,
            "type" : "VEC4"
        },
        {
            "bufferView" : 16,
            "componentType" : 5126,
            "count" : 240,
            "type" : "VEC2"
        },
        {
            "bufferView" : 17,
            "componentType" : 5126,
            "count" : 240,
            "max" : [
                0.9510578513145447,
                1,
                0.9999999403953552
            ],
            "min" : [
                -0.9510578513145447,
                -1,
                -0.9999999403953552
            ],
            "type" : "VEC3"
        },
        {
            "bufferView" : 18,
            "componentType" : 5126,
            "count" : 240,
            "type" : "VEC3"
        },
        {
            "bufferView" : 19,
            "componentType" : 5126,
            "count" : 240,
            "type" : "VEC4"
        },
        {
            "bufferView" : 20,
            "componentType" : 5126,
            "count" : 240,
            "type" : "VEC2"
        }
    ],
    "bufferViews" : [
        {
            "buffer" : 0,
            "byteLength" : 74148,
            "byteOffset" : 0
        },
        {
            "buffer" : 0,
            "byteLength" : 74148,
            "byteOffset" : 74148
        },
        {
            "buffer" : 0,
            "byteLength" : 98864,
            "byteOffset" : 148296
        },
        {
            "buffer" : 0,
            "byteLength" : 49432,
            "byteOffset" : 247160
        },
        {
            "buffer" : 0,
            "byteLength" : 67776,
            "byteOffset" : 296592
        },
        {
            "buffer" : 0,
            "byteLength" : 4968,
            "byteOffset" : 364368
        },
        {
            "buffer" : 0,
            "byteLength" : 4968,
            "byteOffset" : 369336
        },
        {
            "buffer" : 0,
            "byteLength" : 1212,
            "byteOffset" : 374304
        },
        {
            "buffer" : 0,
            "byteLength" : 2880,
            "byteOffset" : 375516
        },
        {
            "buffer" : 0,
            "byteLength" : 2880,
            "byteOffset" : 378396
        },
        {
            "buffer" : 0,
            "byteLength" : 3840,
            "byteOffset" : 381276
        },
        {
            "buffer" : 0,
            "byteLength" : 1920,
            "byteOffset" : 385116
        },
        {
            "buffer" : 0,
            "byteLength" : 480,
            "byteOffset" : 387036
        },
        {
            "buffer" : 0,
            "byteLength" : 2880,
            "byteOffset" : 387516
        },
        {
            "buffer" : 0,
            "byteLength" : 2880,
            "byteOffset" : 390396
        },
        {
            "buffer" : 0,
            "byteLength" : 3840,
            "byteOffset" : 393276
        },
        {
            "buffer" : 0,
            "byteLength" : 1920,
            "byteOffset" : 397116
        },
        {
            "buffer" : 0,
            "byteLength" : 2880,
            "byteOffset" : 399036
        },
        {
            "buffer" : 0,
            "byteLength" : 2880,
            "byteOffset" : 401916
        },
        {
            "buffer" : 0,
            "byteLength" : 3840,
            "byteOffset" : 404796
        },
        {
            "buffer" : 0,
            "byteLength" : 1920,
            "byteOffset" : 408636
        }
    ],
    "buffers" : [
        {
            "byteLength" : 410556,
            "uri" : "worldA.bin"
        }
    ]
}
