{
    "asset" : {
        "copyright" : "mgsx",
        "generator" : "Khronos glTF Blender I/O v1.2.75",
        "version" : "2.0"
    },
    "scene" : 0,
    "scenes" : [
        {
            "extras" : {
                "glTF2ExportSettings" : {
                    "export_apply" : 1,
                    "export_cameras" : 1,
                    "export_copyright" : "mgsx",
                    "export_extras" : 1,
                    "export_format" : "GLTF_SEPARATE",
                    "export_lights" : 1,
                    "export_morph_tangent" : 1,
                    "export_tangents" : 1
                }
            },
            "name" : "Scene",
            "nodes" : [
                0,
                1,
                2,
                3,
                4,
                5,
                6,
                7,
                8,
                9,
                10,
                11,
                12,
                13,
                14,
                15,
                16,
                17,
                18,
                19,
                20,
                21,
                22,
                23,
                24,
                25,
                26,
                27,
                28,
                29,
                30,
                31,
                32
            ]
        }
    ],
    "nodes" : [
        {
            "mesh" : 0,
            "name" : "navMeshB",
            "translation" : [
                0,
                -69.27842712402344,
                0
            ]
        },
        {
            "mesh" : 1,
            "name" : "navMeshB.001",
            "translation" : [
                0.6216630339622498,
                -69.33495330810547,
                -0.010350762866437435
            ]
        },
        {
            "mesh" : 2,
            "name" : "navMeshB.002",
            "translation" : [
                0,
                -69.27842712402344,
                0
            ]
        },
        {
            "mesh" : 3,
            "name" : "navMeshB.003",
            "translation" : [
                0,
                -69.27842712402344,
                0
            ]
        },
        {
            "mesh" : 4,
            "name" : "navMeshB.004",
            "translation" : [
                -0.026932673528790474,
                -69.32733154296875,
                -0.29217764735221863
            ]
        },
        {
            "name" : "sphere.b2",
            "scale" : [
                3.8689076900482178,
                3.8689076900482178,
                3.8689076900482178
            ],
            "translation" : [
                9.97165298461914,
                -83.69041442871094,
                14.119140625
            ]
        },
        {
            "name" : "axis.b1",
            "rotation" : [
                -0.6990675926208496,
                0.021680915728211403,
                -0.7145617008209229,
                -0.015363823622465134
            ],
            "translation" : [
                -0.6344997882843018,
                -0.4633970260620117,
                1.1876009702682495
            ]
        },
        {
            "name" : "sphere.b1",
            "scale" : [
                5.029849052429199,
                5.029849052429199,
                5.029849052429199
            ],
            "translation" : [
                0.017696380615234375,
                -44.81111145019531,
                -0.32914161682128906
            ]
        },
        {
            "name" : "bonus.044",
            "scale" : [
                2.2376766204833984,
                2.2376766204833984,
                2.2376766204833984
            ],
            "translation" : [
                26.261661529541016,
                -1.67474365234375,
                44.25849914550781
            ]
        },
        {
            "name" : "bonus.045",
            "scale" : [
                2.2376766204833984,
                2.2376766204833984,
                2.2376766204833984
            ],
            "translation" : [
                26.97275161743164,
                -5.324485778808594,
                59.234771728515625
            ]
        },
        {
            "name" : "bonus.046",
            "scale" : [
                2.2376766204833984,
                2.2376766204833984,
                2.2376766204833984
            ],
            "translation" : [
                27.418521881103516,
                -12.544841766357422,
                66.79603576660156
            ]
        },
        {
            "name" : "bonus.047",
            "scale" : [
                2.2376766204833984,
                2.2376766204833984,
                2.2376766204833984
            ],
            "translation" : [
                28.015382766723633,
                -21.4747314453125,
                66.189697265625
            ]
        },
        {
            "name" : "bonus.048",
            "scale" : [
                2.2376766204833984,
                2.2376766204833984,
                2.2376766204833984
            ],
            "translation" : [
                28.44618034362793,
                -23.266258239746094,
                58.923553466796875
            ]
        },
        {
            "name" : "bonus.049",
            "scale" : [
                2.2376766204833984,
                2.2376766204833984,
                2.2376766204833984
            ],
            "translation" : [
                33.169761657714844,
                -22.326862335205078,
                23.899749755859375
            ]
        },
        {
            "name" : "bonus.051",
            "scale" : [
                2.2376766204833984,
                2.2376766204833984,
                2.2376766204833984
            ],
            "translation" : [
                2.73492431640625,
                -40.45252227783203,
                7.341064453125
            ]
        },
        {
            "name" : "bonus.054",
            "scale" : [
                2.2376766204833984,
                2.2376766204833984,
                2.2376766204833984
            ],
            "translation" : [
                8.624114990234375,
                -79.6619873046875,
                0.41364288330078125
            ]
        },
        {
            "name" : "bonus.055",
            "scale" : [
                2.2376766204833984,
                2.2376766204833984,
                2.2376766204833984
            ],
            "translation" : [
                6.5333251953125,
                -76.19828796386719,
                -11.091064453125
            ]
        },
        {
            "name" : "bonus.056",
            "scale" : [
                2.2376766204833984,
                2.2376766204833984,
                2.2376766204833984
            ],
            "translation" : [
                7.057708740234375,
                -75.93894958496094,
                -28.66973114013672
            ]
        },
        {
            "name" : "bonus.057",
            "scale" : [
                2.2376766204833984,
                2.2376766204833984,
                2.2376766204833984
            ],
            "translation" : [
                7.285530090332031,
                -75.95487976074219,
                -45.00193786621094
            ]
        },
        {
            "name" : "bonus.058",
            "scale" : [
                2.2376766204833984,
                2.2376766204833984,
                2.2376766204833984
            ],
            "translation" : [
                6.1956939697265625,
                -71.95772552490234,
                -58.04024887084961
            ]
        },
        {
            "name" : "bonus.059",
            "scale" : [
                2.2376766204833984,
                2.2376766204833984,
                2.2376766204833984
            ],
            "translation" : [
                6.182153701782227,
                -64.61058044433594,
                -60.75212097167969
            ]
        },
        {
            "name" : "bonus.060",
            "scale" : [
                2.2376766204833984,
                2.2376766204833984,
                2.2376766204833984
            ],
            "translation" : [
                5.995055675506592,
                -58.45118713378906,
                -55.25285339355469
            ]
        },
        {
            "name" : "bonus.061",
            "scale" : [
                2.2376766204833984,
                2.2376766204833984,
                2.2376766204833984
            ],
            "translation" : [
                9.648239135742188,
                -62.39886474609375,
                -27.135692596435547
            ]
        },
        {
            "name" : "bonus.062",
            "scale" : [
                2.2376766204833984,
                2.2376766204833984,
                2.2376766204833984
            ],
            "translation" : [
                13.60821533203125,
                -60.97923278808594,
                -13.467506408691406
            ]
        },
        {
            "name" : "bonus.063",
            "scale" : [
                2.2376766204833984,
                2.2376766204833984,
                2.2376766204833984
            ],
            "translation" : [
                10.094451904296875,
                -59.873779296875,
                -39.71354675292969
            ]
        },
        {
            "name" : "bonus.064",
            "scale" : [
                2.2376766204833984,
                2.2376766204833984,
                2.2376766204833984
            ],
            "translation" : [
                10.596206665039062,
                -57.4760627746582,
                -3.4786529541015625
            ]
        },
        {
            "name" : "bonus.065",
            "scale" : [
                2.2376766204833984,
                2.2376766204833984,
                2.2376766204833984
            ],
            "translation" : [
                7.241081237792969,
                -51.21401596069336,
                3.9838790893554688
            ]
        },
        {
            "name" : "bonus.067",
            "scale" : [
                2.2376766204833984,
                2.2376766204833984,
                2.2376766204833984
            ],
            "translation" : [
                -6.541847229003906,
                -32.19066619873047,
                8.1484375
            ]
        },
        {
            "name" : "bonus.068",
            "scale" : [
                2.2376766204833984,
                2.2376766204833984,
                2.2376766204833984
            ],
            "translation" : [
                -12.118408203125,
                -29.554054260253906,
                -0.17408180236816406
            ]
        },
        {
            "name" : "bonus.070",
            "scale" : [
                2.2376766204833984,
                2.2376766204833984,
                2.2376766204833984
            ],
            "translation" : [
                37.01014709472656,
                -25.441635131835938,
                -5.531681060791016
            ]
        },
        {
            "name" : "bonus.071",
            "scale" : [
                2.2376766204833984,
                2.2376766204833984,
                2.2376766204833984
            ],
            "translation" : [
                18.07586669921875,
                -24.901329040527344,
                -35.26719665527344
            ]
        },
        {
            "name" : "bonus.072",
            "scale" : [
                2.2376766204833984,
                2.2376766204833984,
                2.2376766204833984
            ],
            "translation" : [
                -14.39211654663086,
                -24.258087158203125,
                -25.352951049804688
            ]
        },
        {
            "name" : "bonus.073",
            "scale" : [
                2.2376766204833984,
                2.2376766204833984,
                2.2376766204833984
            ],
            "translation" : [
                -18.446102142333984,
                -26.12506866455078,
                -11.758590698242188
            ]
        }
    ],
    "materials" : [
        {
            "emissiveFactor" : [
                0,
                0,
                0
            ],
            "name" : "MirrorSoft",
            "pbrMetallicRoughness" : {
                "baseColorFactor" : [
                    0.49353790283203125,
                    0.41020119190216064,
                    0.0440472736954689,
                    1
                ],
                "metallicFactor" : 1,
                "roughnessFactor" : 0.22272726893424988
            }
        },
        {
            "emissiveFactor" : [
                0,
                0,
                0
            ],
            "name" : "MirroBlack",
            "pbrMetallicRoughness" : {
                "baseColorFactor" : [
                    0.0343162901699543,
                    0.0343162901699543,
                    0.0343162901699543,
                    1
                ],
                "metallicFactor" : 0.37727272510528564,
                "roughnessFactor" : 0.4363636374473572
            }
        },
        {
            "emissiveFactor" : [
                0,
                0.8357442021369934,
                1
            ],
            "name" : "Door",
            "pbrMetallicRoughness" : {
                "baseColorFactor" : [
                    0.12847447395324707,
                    0.12847447395324707,
                    0.12847447395324707,
                    1
                ],
                "metallicFactor" : 0,
                "roughnessFactor" : 0.45454543828964233
            }
        }
    ],
    "meshes" : [
        {
            "name" : "Plane",
            "primitives" : [
                {
                    "attributes" : {
                        "POSITION" : 0,
                        "NORMAL" : 1,
                        "TEXCOORD_0" : 2
                    },
                    "indices" : 3,
                    "material" : 0
                }
            ]
        },
        {
            "name" : "Plane.001",
            "primitives" : [
                {
                    "attributes" : {
                        "POSITION" : 4,
                        "NORMAL" : 5,
                        "TANGENT" : 6,
                        "TEXCOORD_0" : 7
                    },
                    "indices" : 8,
                    "material" : 1
                }
            ]
        },
        {
            "name" : "Plane.003",
            "primitives" : [
                {
                    "attributes" : {
                        "POSITION" : 9,
                        "NORMAL" : 10,
                        "TANGENT" : 11,
                        "TEXCOORD_0" : 12
                    },
                    "indices" : 13,
                    "material" : 1
                }
            ]
        },
        {
            "name" : "Plane.004",
            "primitives" : [
                {
                    "attributes" : {
                        "POSITION" : 14,
                        "NORMAL" : 15,
                        "TANGENT" : 16,
                        "TEXCOORD_0" : 17
                    },
                    "indices" : 18,
                    "material" : 2
                }
            ]
        },
        {
            "name" : "Plane.005",
            "primitives" : [
                {
                    "attributes" : {
                        "POSITION" : 19,
                        "NORMAL" : 20,
                        "TANGENT" : 21,
                        "TEXCOORD_0" : 22
                    },
                    "indices" : 23,
                    "material" : 2
                }
            ]
        }
    ],
    "accessors" : [
        {
            "bufferView" : 0,
            "componentType" : 5126,
            "count" : 2030,
            "max" : [
                74.47423553466797,
                70.23665618896484,
                73.13552856445312
            ],
            "min" : [
                -75.27117156982422,
                -21.28681182861328,
                -71.0862808227539
            ],
            "type" : "VEC3"
        },
        {
            "bufferView" : 1,
            "componentType" : 5126,
            "count" : 2030,
            "type" : "VEC3"
        },
        {
            "bufferView" : 2,
            "componentType" : 5126,
            "count" : 2030,
            "type" : "VEC2"
        },
        {
            "bufferView" : 3,
            "componentType" : 5123,
            "count" : 12132,
            "type" : "SCALAR"
        },
        {
            "bufferView" : 4,
            "componentType" : 5126,
            "count" : 67,
            "max" : [
                -6.105710029602051,
                30.895933151245117,
                5.796344757080078
            ],
            "min" : [
                -10.958486557006836,
                18.995258331298828,
                -7.224040508270264
            ],
            "type" : "VEC3"
        },
        {
            "bufferView" : 5,
            "componentType" : 5126,
            "count" : 67,
            "type" : "VEC3"
        },
        {
            "bufferView" : 6,
            "componentType" : 5126,
            "count" : 67,
            "type" : "VEC4"
        },
        {
            "bufferView" : 7,
            "componentType" : 5126,
            "count" : 67,
            "type" : "VEC2"
        },
        {
            "bufferView" : 8,
            "componentType" : 5123,
            "count" : 240,
            "type" : "SCALAR"
        },
        {
            "bufferView" : 9,
            "componentType" : 5126,
            "count" : 36,
            "max" : [
                17.097185134887695,
                -12.021955490112305,
                10.025464057922363
            ],
            "min" : [
                4.110656261444092,
                -20.96993064880371,
                6.330587387084961
            ],
            "type" : "VEC3"
        },
        {
            "bufferView" : 10,
            "componentType" : 5126,
            "count" : 36,
            "type" : "VEC3"
        },
        {
            "bufferView" : 11,
            "componentType" : 5126,
            "count" : 36,
            "type" : "VEC4"
        },
        {
            "bufferView" : 12,
            "componentType" : 5126,
            "count" : 36,
            "type" : "VEC2"
        },
        {
            "bufferView" : 13,
            "componentType" : 5123,
            "count" : 144,
            "type" : "SCALAR"
        },
        {
            "bufferView" : 14,
            "componentType" : 5126,
            "count" : 67,
            "max" : [
                -2.6992053985595703,
                28.858482360839844,
                4.077997207641602
            ],
            "min" : [
                -8.148061752319336,
                20.672685623168945,
                -5.424871444702148
            ],
            "type" : "VEC3"
        },
        {
            "bufferView" : 15,
            "componentType" : 5126,
            "count" : 67,
            "type" : "VEC3"
        },
        {
            "bufferView" : 16,
            "componentType" : 5126,
            "count" : 67,
            "type" : "VEC4"
        },
        {
            "bufferView" : 17,
            "componentType" : 5126,
            "count" : 67,
            "type" : "VEC2"
        },
        {
            "bufferView" : 18,
            "componentType" : 5123,
            "count" : 156,
            "type" : "SCALAR"
        },
        {
            "bufferView" : 19,
            "componentType" : 5126,
            "count" : 12,
            "max" : [
                13.806500434875488,
                -12.841385841369629,
                15.770698547363281
            ],
            "min" : [
                6.457888603210449,
                -17.949819564819336,
                9.017707824707031
            ],
            "type" : "VEC3"
        },
        {
            "bufferView" : 20,
            "componentType" : 5126,
            "count" : 12,
            "type" : "VEC3"
        },
        {
            "bufferView" : 21,
            "componentType" : 5126,
            "count" : 12,
            "type" : "VEC4"
        },
        {
            "bufferView" : 22,
            "componentType" : 5126,
            "count" : 12,
            "type" : "VEC2"
        },
        {
            "bufferView" : 23,
            "componentType" : 5123,
            "count" : 48,
            "type" : "SCALAR"
        }
    ],
    "bufferViews" : [
        {
            "buffer" : 0,
            "byteLength" : 24360,
            "byteOffset" : 0
        },
        {
            "buffer" : 0,
            "byteLength" : 24360,
            "byteOffset" : 24360
        },
        {
            "buffer" : 0,
            "byteLength" : 16240,
            "byteOffset" : 48720
        },
        {
            "buffer" : 0,
            "byteLength" : 24264,
            "byteOffset" : 64960
        },
        {
            "buffer" : 0,
            "byteLength" : 804,
            "byteOffset" : 89224
        },
        {
            "buffer" : 0,
            "byteLength" : 804,
            "byteOffset" : 90028
        },
        {
            "buffer" : 0,
            "byteLength" : 1072,
            "byteOffset" : 90832
        },
        {
            "buffer" : 0,
            "byteLength" : 536,
            "byteOffset" : 91904
        },
        {
            "buffer" : 0,
            "byteLength" : 480,
            "byteOffset" : 92440
        },
        {
            "buffer" : 0,
            "byteLength" : 432,
            "byteOffset" : 92920
        },
        {
            "buffer" : 0,
            "byteLength" : 432,
            "byteOffset" : 93352
        },
        {
            "buffer" : 0,
            "byteLength" : 576,
            "byteOffset" : 93784
        },
        {
            "buffer" : 0,
            "byteLength" : 288,
            "byteOffset" : 94360
        },
        {
            "buffer" : 0,
            "byteLength" : 288,
            "byteOffset" : 94648
        },
        {
            "buffer" : 0,
            "byteLength" : 804,
            "byteOffset" : 94936
        },
        {
            "buffer" : 0,
            "byteLength" : 804,
            "byteOffset" : 95740
        },
        {
            "buffer" : 0,
            "byteLength" : 1072,
            "byteOffset" : 96544
        },
        {
            "buffer" : 0,
            "byteLength" : 536,
            "byteOffset" : 97616
        },
        {
            "buffer" : 0,
            "byteLength" : 312,
            "byteOffset" : 98152
        },
        {
            "buffer" : 0,
            "byteLength" : 144,
            "byteOffset" : 98464
        },
        {
            "buffer" : 0,
            "byteLength" : 144,
            "byteOffset" : 98608
        },
        {
            "buffer" : 0,
            "byteLength" : 192,
            "byteOffset" : 98752
        },
        {
            "buffer" : 0,
            "byteLength" : 96,
            "byteOffset" : 98944
        },
        {
            "buffer" : 0,
            "byteLength" : 96,
            "byteOffset" : 99040
        }
    ],
    "buffers" : [
        {
            "byteLength" : 99136,
            "uri" : "worldB.bin"
        }
    ]
}
