{
    "asset" : {
        "copyright" : "mgsx",
        "generator" : "Khronos glTF Blender I/O v1.2.75",
        "version" : "2.0"
    },
    "scene" : 0,
    "scenes" : [
        {
            "extras" : {
                "glTF2ExportSettings" : {
                    "export_apply" : 1,
                    "export_cameras" : 1,
                    "export_copyright" : "mgsx",
                    "export_extras" : 1,
                    "export_format" : "GLTF_SEPARATE",
                    "export_lights" : 1,
                    "export_morph_tangent" : 1,
                    "export_tangents" : 1
                }
            },
            "name" : "Scene",
            "nodes" : [
                0,
                1,
                2,
                3
            ]
        }
    ],
    "nodes" : [
        {
            "mesh" : 0,
            "name" : "navMeshB",
            "translation" : [
                0,
                -69.27842712402344,
                0
            ]
        },
        {
            "name" : "sphere.b2",
            "scale" : [
                3.8689076900482178,
                3.8689076900482178,
                3.8689076900482178
            ],
            "translation" : [
                9.97165298461914,
                -83.69041442871094,
                14.119140625
            ]
        },
        {
            "name" : "axis.b1",
            "rotation" : [
                -0.6990675926208496,
                0.021680915728211403,
                -0.7145617008209229,
                -0.015363823622465134
            ],
            "translation" : [
                -0.6344997882843018,
                -0.4633970260620117,
                1.1876009702682495
            ]
        },
        {
            "name" : "sphere.b1",
            "scale" : [
                5.029849052429199,
                5.029849052429199,
                5.029849052429199
            ],
            "translation" : [
                0.017696380615234375,
                -44.81111145019531,
                -0.32914161682128906
            ]
        }
    ],
    "materials" : [
        {
            "emissiveFactor" : [
                0,
                0,
                0
            ],
            "name" : "Mirror",
            "pbrMetallicRoughness" : {
                "baseColorFactor" : [
                    0.800000011920929,
                    0.800000011920929,
                    0.800000011920929,
                    1
                ],
                "metallicFactor" : 0.37727272510528564,
                "roughnessFactor" : 0.16818180680274963
            }
        }
    ],
    "meshes" : [
        {
            "name" : "Plane",
            "primitives" : [
                {
                    "attributes" : {
                        "POSITION" : 0,
                        "NORMAL" : 1,
                        "TANGENT" : 2,
                        "TEXCOORD_0" : 3
                    },
                    "indices" : 4,
                    "material" : 0
                }
            ]
        }
    ],
    "accessors" : [
        {
            "bufferView" : 0,
            "componentType" : 5126,
            "count" : 2275,
            "max" : [
                74.47423553466797,
                70.23665618896484,
                73.13552856445312
            ],
            "min" : [
                -75.27117156982422,
                -21.28681182861328,
                -71.0862808227539
            ],
            "type" : "VEC3"
        },
        {
            "bufferView" : 1,
            "componentType" : 5126,
            "count" : 2275,
            "type" : "VEC3"
        },
        {
            "bufferView" : 2,
            "componentType" : 5126,
            "count" : 2275,
            "type" : "VEC4"
        },
        {
            "bufferView" : 3,
            "componentType" : 5126,
            "count" : 2275,
            "type" : "VEC2"
        },
        {
            "bufferView" : 4,
            "componentType" : 5123,
            "count" : 12204,
            "type" : "SCALAR"
        }
    ],
    "bufferViews" : [
        {
            "buffer" : 0,
            "byteLength" : 27300,
            "byteOffset" : 0
        },
        {
            "buffer" : 0,
            "byteLength" : 27300,
            "byteOffset" : 27300
        },
        {
            "buffer" : 0,
            "byteLength" : 36400,
            "byteOffset" : 54600
        },
        {
            "buffer" : 0,
            "byteLength" : 18200,
            "byteOffset" : 91000
        },
        {
            "buffer" : 0,
            "byteLength" : 24408,
            "byteOffset" : 109200
        }
    ],
    "buffers" : [
        {
            "byteLength" : 133608,
            "uri" : "worldB.bin"
        }
    ]
}
